<svg width="14" height="13" viewBox="0 0 14 13" fill="none" xmlns="http://www.w3.org/2000/svg">
<path d="M5.80544 0.717389C6.11673 -0.178172 7.38327 -0.178173 7.69456 0.717387L8.57878 3.26116C8.7161 3.65623 9.08479 3.9241 9.50296 3.93262L12.1955 3.98749C13.1434 4.0068 13.5348 5.21135 12.7792 5.78415L10.6332 7.41116C10.2999 7.66385 10.1591 8.09727 10.2802 8.49761L11.06 11.0753C11.3346 11.9828 10.31 12.7272 9.53171 12.1857L7.32118 10.6475C6.97786 10.4086 6.52214 10.4086 6.17882 10.6475L3.96829 12.1857C3.19005 12.7272 2.1654 11.9828 2.43995 11.0753L3.2198 8.49761C3.34091 8.09727 3.20009 7.66385 2.86679 7.41116L0.72076 5.78415C-0.0347729 5.21135 0.356606 4.0068 1.30453 3.98749L3.99703 3.93262C4.41521 3.9241 4.7839 3.65623 4.92122 3.26116L5.80544 0.717389Z" fill="#FDAF4D"/>
</svg>
